<svg width="228" height="32" viewBox="0 0 228 32" fill="none" xmlns="http://www.w3.org/2000/svg">
<path d="M57.9362 20.4526C58.9208 19.2373 59.5115 17.6884 59.5115 16.0002C59.5115 14.3132 58.9214 12.7637 57.9362 11.5473V4.36377H65.3222L72.1911 13.6332L75.8102 19.3204H76.2903L75.958 13.9286V4.36377H82.9008V29.1068H75.5148L68.2027 19.5789L65.0636 14.7041H64.5836L64.879 19.4312V29.1068H57.9362V20.4526Z" fill="#999999"/>
<path fill-rule="evenodd" clip-rule="evenodd" d="M25.7502 21.3259C24.0816 26.311 19.5198 29.1068 13.1169 29.1068H0.597656V4.36377H13.1169C19.0459 4.36377 23.3963 6.76102 25.3326 11.0741C24.1022 12.3493 23.3441 14.0853 23.3441 16.0002C23.3441 18.1213 24.2747 20.0256 25.7502 21.3259ZM13.1169 10.6049H7.54047V22.8656H13.1169C17.5115 22.8656 19.0257 22.3117 19.0257 16.7353C19.0257 11.1589 17.5115 10.6049 13.1169 10.6049Z" fill="#999999"/>
<path fill-rule="evenodd" clip-rule="evenodd" d="M91.9976 29.1068H84.2054L94.8782 4.36377H104.812L115.522 29.1068H107.545L105.662 24.5275H93.918L91.9976 29.1068ZM97.9803 14.8149L96.54 18.2863H103.114L101.673 14.8149L100.048 10.6418H99.5683L97.9803 14.8149Z" fill="#999999"/>
<path d="M118.739 29.1068H125.682V10.6049H134.398V4.36377H109.987V10.6049H118.739V29.1068Z" fill="#999999"/>
<path d="M135.89 29.1068H157.863V22.8656H142.833V19.7635H157.309V13.5593H142.833V10.6049H157.863V4.36377H135.89V29.1068Z" fill="#999999"/>
<path d="M169.999 16.7347C169.999 24.2289 174.636 29.1056 182.59 29.1056C188.508 29.1056 190.656 26.4163 191.335 23.6194H191.712V28.747H198.308V15.6231H183.381V20.5715H191.146C190.807 22.4002 189.299 22.6512 184.06 22.6512C178.933 22.6512 177.538 21.5038 177.538 16.7347C177.538 11.9656 179.009 10.8182 184.437 10.8182C188.922 10.8182 190.355 11.6787 190.355 13.9019V14.1529H198.271V13.9019C198.271 7.94954 193.182 4.36377 184.625 4.36377C175.428 4.36377 169.999 9.24042 169.999 16.7347Z" fill="#999999"/>
<path d="M159.87 29.091H169.068V22.2064H159.87V29.091Z" fill="#999999"/>
<path d="M211.685 29.1056C203.732 29.1056 199.095 24.2289 199.095 16.7347C199.095 9.24042 204.523 4.36377 213.721 4.36377C222.278 4.36377 227.367 7.94954 227.367 13.9019V14.1529H219.451V13.9019C219.451 11.6787 218.018 10.8182 213.532 10.8182C208.104 10.8182 206.634 11.9656 206.634 16.7347C206.634 21.5038 208.029 22.6512 213.155 22.6512C218.395 22.6512 219.903 22.4002 220.242 20.5715H212.477V15.6231H227.404V28.747H220.808V23.6194H220.431C219.752 26.4163 217.604 29.1056 211.685 29.1056Z" fill="#999999"/>
<path d="M46.0311 3.03707C45.6356 3.28102 45.262 3.57454 44.9191 3.91763C43.5751 5.26259 42.9923 7.08084 43.1707 8.83626C42.6196 8.70462 42.0445 8.63492 41.4531 8.63492C40.479 8.63492 39.5491 8.82404 38.698 9.16755C37.3427 8.27473 36.4482 6.73872 36.4482 4.99363C36.4482 2.23572 38.6824 0 41.4385 0C43.5006 0 45.2706 1.2516 46.0311 3.03707Z" fill="#999999"/>
<path d="M37.6101 9.71579C37.4471 9.58342 37.2907 9.44244 37.1417 9.29332C36.5774 8.72867 36.1298 8.05834 35.8244 7.3206C35.5191 6.58286 35.3619 5.79215 35.3619 4.99363C35.3619 4.51802 35.4176 4.04518 35.5273 3.58465C33.7275 2.85962 31.5908 3.22683 30.1323 4.68629C28.1835 6.63643 28.1835 9.79822 30.1323 11.7484C31.3669 12.9837 33.0874 13.4365 34.6781 13.1067C35.2817 11.6952 36.3134 10.5105 37.6101 9.71579Z" fill="#999999"/>
<path d="M34.2935 14.2652C32.535 14.4483 30.7118 13.8656 29.3642 12.517C29.0167 12.1692 28.72 11.7898 28.4743 11.3881C26.6833 12.1515 25.4277 13.929 25.4277 16C25.4277 18.7673 27.6696 21.0107 30.4351 21.0107C32.1845 21.0107 33.7243 20.1129 34.6197 18.7527C34.2768 17.9023 34.0881 16.9732 34.0881 16C34.0881 15.4024 34.1592 14.8215 34.2935 14.2652Z" fill="#999999"/>
<path d="M35.1603 19.8289C34.0539 21.1933 32.3687 22.0686 30.4788 22.0805C30.4657 22.0806 30.4526 22.0807 30.4395 22.0807C29.9675 22.0807 29.5082 22.0268 29.0672 21.925C29.0551 21.9222 29.043 21.9193 29.0309 21.9165C28.3071 23.7172 28.6742 25.8546 30.1324 27.3137C32.0812 29.2639 35.2409 29.2639 37.1897 27.3137C38.4229 26.0797 38.8757 24.3604 38.5482 22.77C37.1367 22.1636 35.9529 21.1287 35.1603 19.8289Z" fill="#999999"/>
<path d="M39.7055 23.1565C39.8863 24.9142 39.3037 26.7356 37.9578 28.0824C37.615 28.4255 37.2413 28.719 36.8458 28.9629C37.6064 30.7484 39.3764 32 41.4385 32C44.1945 32 46.4287 29.7643 46.4287 27.0064C46.4287 25.2661 45.5391 23.7337 44.19 22.8398C43.3439 23.1787 42.4203 23.3651 41.4531 23.3651C40.851 23.3651 40.2657 23.2928 39.7055 23.1565Z" fill="#999999"/>
<path d="M45.2795 22.2943C46.644 23.4094 47.5151 25.1061 47.5151 27.0064C47.5151 27.4916 47.4583 27.9635 47.351 28.4159C49.1505 29.1402 51.2865 28.7728 52.7446 27.3137C54.6934 25.3636 54.6934 22.2018 52.7446 20.2517C51.5183 19.0246 49.8127 18.5696 48.231 18.8867C47.6252 20.3072 46.586 21.4984 45.2795 22.2943Z" fill="#999999"/>
<path d="M48.6135 17.7318C50.3627 17.5584 52.1728 18.1421 53.5127 19.483C53.8556 19.8261 54.1489 20.2 54.3927 20.5958C56.177 19.8347 57.4277 18.0635 57.4277 16C57.4277 13.2421 55.1935 11.0064 52.4375 11.0064C50.7034 11.0064 49.1759 11.8914 48.2815 13.2348C48.6276 14.0886 48.8182 15.022 48.8182 16C48.8182 16.5965 48.7473 17.1764 48.6135 17.7318Z" fill="#999999"/>
<path d="M47.7334 12.1505C48.8477 10.7885 50.5412 9.91932 52.4375 9.91932C52.9223 9.91932 53.394 9.97615 53.846 10.0835C54.5699 8.28282 54.2027 6.1454 52.7446 4.68629C50.7958 2.73616 47.6361 2.73616 45.6873 4.68629C44.4576 5.9168 44.0038 7.62971 44.326 9.21625C45.7441 9.81757 46.9349 10.8506 47.7334 12.1505Z" fill="#999999"/>
</svg>
